<?xml version="1.0" encoding="UTF-8" standalone="no"?>
<!-- Generator: Adobe Illustrator 16.0.0, SVG Export Plug-In . SVG Version: 6.00 Build 0)  -->

<svg
   xmlns:dc="http://purl.org/dc/elements/1.1/"
   xmlns:cc="http://creativecommons.org/ns#"
   xmlns:rdf="http://www.w3.org/1999/02/22-rdf-syntax-ns#"
   xmlns:svg="http://www.w3.org/2000/svg"
   xmlns="http://www.w3.org/2000/svg"
   xmlns:sodipodi="http://sodipodi.sourceforge.net/DTD/sodipodi-0.dtd"
   xmlns:inkscape="http://www.inkscape.org/namespaces/inkscape"
   version="1.1"
   id="Layer_1"
   x="0px"
   y="0px"
   width="64px"
   height="64px"
   viewBox="0 0 64 64"
   enable-background="new 0 0 64 64"
   xml:space="preserve"
   inkscape:version="0.91 r13725"
   sodipodi:docname="hamburger.svg"><metadata
   id="metadata13"><rdf:RDF><cc:Work
       rdf:about=""><dc:format>image/svg+xml</dc:format><dc:type
         rdf:resource="http://purl.org/dc/dcmitype/StillImage" /><dc:title></dc:title></cc:Work></rdf:RDF></metadata><defs
   id="defs11" /><sodipodi:namedview
   pagecolor="#ffffff"
   bordercolor="#666666"
   borderopacity="1"
   objecttolerance="10"
   gridtolerance="10"
   guidetolerance="10"
   inkscape:pageopacity="0"
   inkscape:pageshadow="2"
   inkscape:window-width="1660"
   inkscape:window-height="480"
   id="namedview9"
   showgrid="false"
   inkscape:zoom="3.6875"
   inkscape:cx="-9.8983051"
   inkscape:cy="32"
   inkscape:window-x="0"
   inkscape:window-y="0"
   inkscape:window-maximized="0"
   inkscape:current-layer="Layer_1" />
<g
   id="LIST_1_"
   enable-background="new    "
   style="fill:#62929e;fill-opacity:1">
	<g
   id="LIST"
   style="fill:#62929e;fill-opacity:1">
		<g
   id="g5"
   style="fill:#62929e;fill-opacity:1">
			<path
   d="M3,19h58c1.657,0,3-1.343,3-3s-1.343-3-3-3H3c-1.657,0-3,1.343-3,3S1.343,19,3,19z M61,29H3c-1.657,0-3,1.343-3,3     s1.343,3,3,3h58c1.657,0,3-1.343,3-3S62.657,29,61,29z M61,45H3c-1.657,0-3,1.343-3,3s1.343,3,3,3h58c1.657,0,3-1.343,3-3     S62.657,45,61,45z"
   id="path7"
   style="fill:#62929e;fill-opacity:1" />
		</g>
	</g>
</g>
</svg>