<?xml version="1.0" encoding="UTF-8" standalone="no"?>
<!-- Generator: Adobe Illustrator 19.1.0, SVG Export Plug-In . SVG Version: 6.00 Build 0)  -->

<svg
   xmlns:dc="http://purl.org/dc/elements/1.1/"
   xmlns:cc="http://creativecommons.org/ns#"
   xmlns:rdf="http://www.w3.org/1999/02/22-rdf-syntax-ns#"
   xmlns:svg="http://www.w3.org/2000/svg"
   xmlns="http://www.w3.org/2000/svg"
   xmlns:sodipodi="http://sodipodi.sourceforge.net/DTD/sodipodi-0.dtd"
   xmlns:inkscape="http://www.inkscape.org/namespaces/inkscape"
   version="1.1"
   id="icojam_x5F_unigrid_x5F_mini"
   x="0px"
   y="0px"
   width="105.2623"
   height="119.37895"
   viewBox="0 0 105.2623 119.37895"
   enable-background="new 0 0 600 600"
   xml:space="preserve"
   inkscape:version="0.91 r13725"
   sodipodi:docname="htmlLogo.svg"><metadata
   id="metadata2647"><rdf:RDF><cc:Work
       rdf:about=""><dc:format>image/svg+xml</dc:format><dc:type
         rdf:resource="http://purl.org/dc/dcmitype/StillImage" /><dc:title></dc:title></cc:Work></rdf:RDF></metadata><defs
   id="defs2645" /><sodipodi:namedview
   pagecolor="#ffffff"
   bordercolor="#666666"
   borderopacity="1"
   objecttolerance="10"
   gridtolerance="10"
   guidetolerance="10"
   inkscape:pageopacity="0"
   inkscape:pageshadow="2"
   inkscape:window-width="2194"
   inkscape:window-height="1171"
   id="namedview2643"
   showgrid="true"
   inkscape:zoom="1.1125147"
   inkscape:cx="318.34264"
   inkscape:cy="40.595574"
   inkscape:window-x="-8"
   inkscape:window-y="-8"
   inkscape:window-maximized="1"
   inkscape:current-layer="icojam_x5F_unigrid_x5F_mini"
   showguides="false"
   fit-margin-top="0"
   fit-margin-left="0"
   fit-margin-right="0"
   fit-margin-bottom="0" />





































































































<g
   id="g6122"
   transform="matrix(1.1464997,0,0,1.1464997,-25.249167,-443.01803)"><polygon
     transform="matrix(0.25311078,0,0,0.25311078,3.1324126,360.94119)"
     id="polygon6002"
     points="74.633,100.62 437.367,100.62 404.321,470.819 255.778,512 107.644,470.877 "
     style="fill:#e44d26" /><polygon
     transform="matrix(0.25311078,0,0,0.25311078,3.1324126,360.94119)"
     id="polygon6004"
     points="376.03,447.246 404.27,130.894 256,130.894 256,480.523 "
     style="fill:#f16529" /><polygon
     transform="matrix(0.25311078,0,0,0.25311078,3.1324126,360.94119)"
     id="polygon6006"
     points="195.91,268.217 191.76,221.716 256,221.716 256,176.305 255.843,176.305 142.132,176.305 143.219,188.488 154.38,313.627 256,313.627 256,268.217 "
     style="fill:#ebebeb" /><polygon
     transform="matrix(0.25311078,0,0,0.25311078,3.1324126,360.94119)"
     id="polygon6008"
     points="201.994,336.333 177.419,336.333 156.409,336.333 162.771,407.634 255.791,433.457 256,433.399 256,386.153 255.801,386.206 205.227,372.55 "
     style="fill:#ebebeb" /><polygon
     transform="matrix(0.25311078,0,0,0.25311078,3.1324126,360.94119)"
     id="polygon6018"
     points="349.162,268.217 255.843,268.217 255.843,313.627 311.761,313.627 306.49,372.521 255.843,386.191 255.843,433.435 348.937,407.634 349.62,399.962 360.291,280.411 361.399,268.217 "
     style="fill:#ffffff" /><polygon
     transform="matrix(0.25311078,0,0,0.25311078,3.1324126,360.94119)"
     id="polygon6020"
     points="255.843,204.509 255.843,221.605 255.843,221.716 365.385,221.716 365.385,221.716 365.531,221.716 366.442,211.509 368.511,188.488 369.597,176.305 255.843,176.305 "
     style="fill:#ffffff" /></g></svg>