<?xml version="1.0" encoding="UTF-8" standalone="no"?>
<!-- Generator: Adobe Illustrator 19.1.0, SVG Export Plug-In . SVG Version: 6.00 Build 0)  -->

<svg
   xmlns:dc="http://purl.org/dc/elements/1.1/"
   xmlns:cc="http://creativecommons.org/ns#"
   xmlns:rdf="http://www.w3.org/1999/02/22-rdf-syntax-ns#"
   xmlns:svg="http://www.w3.org/2000/svg"
   xmlns="http://www.w3.org/2000/svg"
   xmlns:sodipodi="http://sodipodi.sourceforge.net/DTD/sodipodi-0.dtd"
   xmlns:inkscape="http://www.inkscape.org/namespaces/inkscape"
   version="1.1"
   id="icojam_x5F_unigrid_x5F_mini"
   x="0px"
   y="0px"
   width="99.041611"
   height="121.05084"
   viewBox="0 0 99.041612 121.05084"
   enable-background="new 0 0 600 600"
   xml:space="preserve"
   inkscape:version="0.91 r13725"
   sodipodi:docname="sqlLogo.svg"><metadata
   id="metadata2647"><rdf:RDF><cc:Work
       rdf:about=""><dc:format>image/svg+xml</dc:format><dc:type
         rdf:resource="http://purl.org/dc/dcmitype/StillImage" /><dc:title /></cc:Work></rdf:RDF></metadata><defs
   id="defs2645" /><sodipodi:namedview
   pagecolor="#ffffff"
   bordercolor="#666666"
   borderopacity="1"
   objecttolerance="10"
   gridtolerance="10"
   guidetolerance="10"
   inkscape:pageopacity="0"
   inkscape:pageshadow="2"
   inkscape:window-width="2194"
   inkscape:window-height="1171"
   id="namedview2643"
   showgrid="true"
   inkscape:zoom="1.1125147"
   inkscape:cx="95.88456"
   inkscape:cy="42.899529"
   inkscape:window-x="-8"
   inkscape:window-y="-8"
   inkscape:window-maximized="1"
   inkscape:current-layer="icojam_x5F_unigrid_x5F_mini"
   showguides="false"
   fit-margin-top="0"
   fit-margin-left="0"
   fit-margin-right="0"
   fit-margin-bottom="0" />





































































































<g
   id="g4142"><g
     transform="translate(-262.18946,-357.64977)"
     id="g7003"><path
       id="path5976"
       d="m 311.71025,357.64977 c -27.78666,0 -49.52079,12.10509 -49.52079,27.51156 l 0,66.02773 c 0,15.40649 21.73413,27.51155 49.52079,27.51155 27.78669,0 49.52082,-12.10506 49.52082,-27.51155 l 0,-66.02773 c 0,-15.40647 -21.73413,-27.51156 -49.52082,-27.51156 z m -41.26731,63.13903 c 8.39102,7.56568 23.52236,12.51777 41.26731,12.51777 17.745,0 32.87633,-4.95209 41.26735,-12.51777 l 0,13.48065 c -4.81451,8.8037 -21.73414,15.54404 -41.26735,15.54404 -19.5332,0 -36.45279,-6.74034 -41.26731,-15.54404 l 0,-13.48065 z m 82.53466,-8.52858 c -4.81451,8.8037 -21.73414,15.544 -41.26735,15.544 -19.5332,0 -36.45279,-6.7403 -41.26731,-15.544 l 0,-11.69243 c 8.80369,7.29058 23.79749,12.10509 41.26731,12.10509 17.46986,0 32.46365,-4.81451 41.26735,-12.10509 l 0,11.69243 z m -41.26735,-46.35698 c 19.53321,0 41.26735,7.84079 41.26735,19.25809 0,11.41729 -21.73414,19.25808 -41.26735,19.25808 -19.5332,0 -41.26731,-7.84079 -41.26731,-19.25808 0,-11.4173 21.73411,-19.25809 41.26731,-19.25809 z m 0,104.54392 c -19.5332,0 -41.26731,-7.97835 -41.26731,-19.2581 l 0,-8.39102 c 8.39102,7.56567 23.52236,12.51775 41.26731,12.51775 17.745,0 32.87633,-4.95208 41.26735,-12.51775 l 0,8.39102 c 0,11.27975 -21.73414,19.2581 -41.26735,19.2581 z"
       inkscape:connector-curvature="0"
       style="fill:#1a1a1a" /><path
       style="fill:#666666;fill-opacity:1;stroke:#666666;stroke-opacity:1"
       d="m 306.80713,404.0479 c -17.56491,-0.96611 -33.34055,-8.154 -35.75734,-16.29221 -0.59606,-2.00716 -0.59417,-3.16834 0.008,-5.19759 1.80634,-6.08261 10.90504,-11.72606 23.39194,-14.50881 5.09633,-1.13574 7.28192,-1.44474 12.61079,-1.78291 19.59886,-1.24374 40.23487,5.61725 44.78932,14.89139 1.22982,2.50428 1.21761,5.49479 -0.0326,7.98581 -4.74357,9.45127 -24.60159,16.02685 -45.01053,14.90432 z"
       id="path6987"
       inkscape:connector-curvature="0" /><path
       style="fill:#666666;fill-opacity:1;stroke:#666666;stroke-opacity:1"
       d="m 303.55317,427.27307 c -14.89549,-1.70194 -26.75313,-6.67408 -31.70335,-13.29382 l -1.27151,-1.70034 0,-5.69207 0,-5.69208 1.98623,1.45762 c 5.75006,4.21974 15.9293,7.95258 25.97987,9.52709 4.58398,0.71812 16.96731,0.97874 22.18889,0.46699 11.21269,-1.09893 22.37637,-4.74099 29.53251,-9.63474 l 2.62182,-1.79295 0,5.6643 0,5.6643 -0.90632,1.23942 c -4.66583,6.38061 -14.83459,11.12919 -28.55426,13.33419 -3.6623,0.5886 -16.18583,0.87348 -19.87388,0.45209 z"
       id="path6989"
       inkscape:connector-curvature="0" /><path
       style="fill:#666666;fill-opacity:1;stroke:#666666;stroke-opacity:1"
       d="m 303.78806,449.32796 c -5.04234,-0.71624 -8.04013,-1.22873 -10.27752,-1.75701 -9.51947,-2.24768 -17.56987,-6.47201 -21.42269,-11.24124 l -1.50954,-1.86859 0,-6.59619 0,-6.59619 2.46293,1.76922 c 7.30473,5.2473 18.22503,8.86883 30.11326,9.98658 5.08938,0.4785 16.94283,0.21146 21.44924,-0.48323 11.09081,-1.7097 20.25759,-5.25375 27.11238,-10.48216 l 1.17151,-0.89355 0,6.52106 0,6.52106 -1.44339,1.92014 c -3.37749,4.49305 -10.64017,8.51639 -19.87907,11.01251 -6.27702,1.69589 -10.00379,2.14089 -18.71991,2.23526 -4.4571,0.0483 -8.53284,0.0268 -9.0572,-0.0477 z"
       id="path6991"
       inkscape:connector-curvature="0" /><path
       style="fill:#666666;fill-opacity:1;stroke:#666666;stroke-opacity:1"
       d="m 304.58255,469.9853 c -14.38175,-1.72393 -25.33279,-5.85516 -30.59905,-11.54335 -2.90009,-3.13244 -3.21172,-4.07598 -3.34577,-10.12993 l -0.11482,-5.18538 1.85503,1.4227 c 9.93262,7.61776 27.7632,11.89002 44.72012,10.71507 14.23353,-0.98624 24.9867,-4.31699 33.38099,-10.33962 l 2.46465,-1.7683 -0.10748,5.01155 c -0.0996,4.64217 -0.1698,5.14449 -0.95295,6.8151 -3.02198,6.44643 -13.20736,11.67623 -27.81947,14.28421 -2.93697,0.52419 -5.33553,0.68908 -11.05964,0.76032 -4.02013,0.05 -7.80985,0.031 -8.42161,-0.0424 z"
       id="path6993"
       inkscape:connector-curvature="0" /></g></g><g
   style="font-style:normal;font-variant:normal;font-weight:bold;font-stretch:normal;font-size:40px;line-height:125%;font-family:sans-serif;-inkscape-font-specification:'sans-serif Bold';letter-spacing:0px;word-spacing:0px;fill:#2a93ff;fill-opacity:1;stroke:none;stroke-width:1px;stroke-linecap:butt;stroke-linejoin:miter;stroke-opacity:1"
   id="text3338"
   transform="matrix(0.72169296,0,0,0.72169296,13.735086,17.17177)"><path
     d="m 28.459167,63.146126 0,6.171875 q -2.402344,-1.074219 -4.6875,-1.621094 -2.285157,-0.546875 -4.316407,-0.546875 -2.695312,0 -3.984375,0.742188 -1.289062,0.742187 -1.289062,2.304687 0,1.171875 0.859375,1.835938 0.878906,0.644531 3.164062,1.113281 l 3.203125,0.644531 q 4.863282,0.976563 6.914063,2.96875 2.050781,1.992188 2.050781,5.664063 0,4.824218 -2.871094,7.1875 -2.851562,2.34375 -8.730468,2.34375 -2.773438,0 -5.566407,-0.527344 -2.792968,-0.527344 -5.5859372,-1.5625 l 0,-6.347656 q 2.7929692,1.484375 5.3906252,2.246093 2.617187,0.742188 5.039062,0.742188 2.460938,0 3.769532,-0.820313 1.308593,-0.820312 1.308593,-2.34375 0,-1.367187 -0.898437,-2.109375 -0.878906,-0.742187 -3.535156,-1.328125 l -2.910157,-0.644531 q -4.375,-0.9375 -6.4062497,-2.988281 -2.0117188,-2.050781 -2.0117188,-5.527344 0,-4.355469 2.8125005,-6.699219 2.8125,-2.34375 8.085937,-2.34375 2.402344,0 4.941406,0.371094 2.539063,0.351563 5.253907,1.074219 z"
     id="path4171"
     inkscape:connector-curvature="0"
     style="fill:#2a93ff;fill-opacity:1" /><path
     d="m 51.115417,91.915657 -0.585938,0 q -7.207031,0 -11.210937,-3.984375 -4.003907,-3.984375 -4.003907,-11.09375 0,-7.089844 3.984375,-11.113281 4.003907,-4.023438 11.015625,-4.023438 7.089844,0 11.035157,3.984375 3.964843,3.984375 3.964843,11.152344 0,4.921875 -2.109375,8.476563 -2.089843,3.554687 -6.035156,5.351562 l 5.878906,6.5625 -7.167968,0 -4.765625,-5.3125 z M 50.314635,67.150032 q -3.4375,0 -5.332031,2.539063 -1.894531,2.539062 -1.894531,7.148437 0,4.6875 1.855469,7.1875 1.855468,2.480469 5.371093,2.480469 3.457032,0 5.351563,-2.539063 1.894531,-2.539062 1.894531,-7.128906 0,-4.609375 -1.894531,-7.148437 -1.894531,-2.539063 -5.351563,-2.539063 z"
     id="path4173"
     inkscape:connector-curvature="0"
     style="fill:#2a93ff;fill-opacity:1" /><path
     d="m 70.978698,62.228157 7.519531,0 0,23.476563 13.203125,0 0,5.683593 -20.722656,0 0,-29.160156 z"
     id="path4175"
     inkscape:connector-curvature="0"
     style="fill:#2a93ff;fill-opacity:1" /></g></svg>